<svg width="28" height="22" viewBox="0 0 28 22" fill="none" xmlns="http://www.w3.org/2000/svg">
<path d="M28 2.61362C27.2143 3.72 26.2413 4.69025 25.122 5.48351C25.1402 5.72441 25.1402 5.96531 25.1402 6.20511C25.1402 13.5443 19.366 22 8.81254 22C5.56156 22 2.54029 21.0892 0 19.5074C0.461663 19.5591 0.90627 19.5767 1.38613 19.5767C4.06855 19.5767 6.53834 18.7 8.51121 17.2051C7.31367 17.184 6.15282 16.8017 5.19081 16.1115C4.22879 15.4212 3.51363 14.4576 3.14522 13.3551C3.50114 13.4068 3.85591 13.4409 4.22888 13.4409C4.74399 13.4409 5.2591 13.3716 5.73895 13.2517C4.43948 12.9974 3.27108 12.3157 2.43221 11.3226C1.59334 10.3294 1.13573 9.08595 1.1371 7.80341V7.73411C1.93236 8.16313 2.82098 8.4047 3.73083 8.43921C2.94338 7.9324 2.29771 7.24506 1.85132 6.43842C1.40494 5.63178 1.17169 4.73087 1.17235 3.81592C1.17235 2.78412 1.45663 1.83922 1.95468 1.01422C3.39607 2.73056 5.19431 4.13464 7.23276 5.13539C9.27122 6.13614 11.5044 6.71122 13.7874 6.82331C13.6954 6.40523 13.6477 5.97916 13.6452 5.55171C13.6449 4.82257 13.7932 4.10052 14.0815 3.42683C14.3698 2.75314 14.7925 2.14101 15.3255 1.62543C15.8584 1.10985 16.4912 0.700925 17.1876 0.422028C17.884 0.143132 18.6304 -0.000269313 19.3842 1.97995e-05C20.17 -0.00201383 20.9479 0.152631 21.6692 0.454307C22.3905 0.755982 23.0399 1.19822 23.5767 1.75342C24.8618 1.51375 26.0941 1.06004 27.2188 0.412519C26.7909 1.69543 25.8937 2.78317 24.6956 3.47162C25.8509 3.35172 26.9698 3.04152 28 2.61252V2.61362Z" fill="#78599E"/>
</svg>
