<svg width="28" height="28" viewBox="0 0 28 28" fill="none" xmlns="http://www.w3.org/2000/svg">
<path d="M28 14C28 6.2678 21.7322 0 14 0C6.2678 0 0 6.2678 0 14C0 21.7322 6.2678 28 14 28C21.7322 28 28 21.7322 28 14ZM8.5008 12.1296C8.5008 9.0216 10.9634 6.5002 14 6.5002C17.038 6.5002 19.5006 9.0202 19.5006 12.1282V20.3042C19.5025 20.4866 19.4319 20.6624 19.3043 20.7928C19.1767 20.9233 19.0026 20.9978 18.8202 21H9.1812C9.09074 20.9989 9.00139 20.98 8.91824 20.9444C8.83509 20.9087 8.75977 20.8571 8.69659 20.7923C8.63341 20.7276 8.5836 20.651 8.55 20.567C8.51641 20.483 8.49969 20.3933 8.5008 20.3028V12.1296Z" fill="#78599E"/>
</svg>
