<svg width="43" height="43" viewBox="0 0 43 43" fill="none" xmlns="http://www.w3.org/2000/svg">
<path fill-rule="evenodd" clip-rule="evenodd" d="M21.5 3.53947C31.4188 3.53947 39.4605 11.58 39.4605 21.5C39.4605 31.4188 31.4188 39.4605 21.5 39.4605C11.58 39.4605 3.53947 31.4188 3.53947 21.5C3.53947 11.58 11.58 3.53947 21.5 3.53947ZM21.5 0C33.3743 0 43 9.62567 43 21.5C43 33.3731 33.3743 43 21.5 43C9.62567 43 0 33.3731 0 21.5C0 9.62567 9.62567 0 21.5 0ZM19.8438 9.92126H23.155L23.1562 13.2275L29.7762 13.23V16.5375L16.5412 16.5412V26.4588H26.4575V23.1562H19.8438V19.8438H29.7762V29.7688L23.155 29.7737V33.0787H19.8438L19.845 29.7737L13.2225 29.7688V13.2312L19.8438 13.2275V9.92126Z" fill="white"/>
</svg>
