<svg width="1325" height="320" viewBox="0 0 1325 320" fill="none" xmlns="http://www.w3.org/2000/svg">
<path d="M454.5 207C453 203.4 451.1 199.1 449 194C446.8 188.9 444.5 183.3 441.9 177.3C439.3 171.2 436.7 165.1 434 158.8C431.3 152.5 428.7 146.4 426.1 140.2C423.5 134.1 421.2 128.5 419.1 123.5L413.7 110.5C412.2 106.9 411.1 104.4 410.5 103L408.7 98.9L358.4 217.1H378.4L391 186.6H426C427.2 189.6 428.4 192.5 429.6 195.3C430.9 198.5 432.1 201.4 433.3 204.1C434.4 206.8 435.4 209.2 436.3 211.2C437.2 213.3 437.9 214.9 438.4 215.9L438.9 217H458.9L457.8 214.3C457.1 213 456.1 210.6 454.5 207ZM419 169.2H398.2L408.6 144C409 145 409.5 146.3 410.1 147.8C410.9 149.7 411.8 151.8 412.8 154.3L416.2 162.5C417.1 164.7 418 166.9 419 169.2Z" fill="black"/>
<path d="M515.1 106.9H495.1V217.1H567.9V198H515.1V106.9Z" fill="black"/>
<path d="M678.2 189.2L676.3 191.8C676.3 191.8 675.9 192.2 674.2 193.1C672.8 193.8 670.9 194.6 668.7 195.3C666.5 196.1 664 196.7 661.2 197.3C658.5 197.9 655.7 198.1 652.8 198.1C647.4 198.1 642.4 197.1 638 195C633.5 193 629.6 190.2 626.4 186.8C623.2 183.4 620.7 179.4 618.8 175C617 170.7 616.1 166.1 616.1 161.4C616.1 156.6 617.1 151.9 619 147.5C620.9 143.1 623.6 139.1 626.9 135.7C630.2 132.3 634.2 129.6 638.8 127.6C643.4 125.6 648.4 124.6 653.8 124.6C655.3 124.6 657 124.7 658.8 124.9C660.6 125.1 662.5 125.4 664.2 125.7C666 126.1 667.7 126.5 669.3 127.1C670.8 127.6 672.2 128.3 673.3 129.1L675 130.3L676 128.4C677 126.6 677.8 125.2 678.4 124.1C679 123 679.5 122.1 680 121.3C680.5 120.5 681 119.6 681.4 118.8C681.8 118 682.4 117.1 683.2 116L684.1 114.6L682.9 113.5C681.7 112.4 680 111.3 677.8 110.3C675.7 109.3 673.3 108.5 670.6 107.8C667.9 107.1 665.1 106.5 662.1 106.1C651.1 104.6 640.6 105.9 631.1 109.7C624.2 112.5 618.1 116.5 612.9 121.6C607.8 126.6 603.6 132.7 600.7 139.7C597.7 146.7 596.2 154.4 596.2 162.6C596.2 170 597.5 177.2 600 183.8C602.5 190.5 606.2 196.4 611 201.5C615.8 206.6 621.6 210.6 628.4 213.6C635.2 216.6 643 218.1 651.5 218.1C655.5 218.1 659.3 217.8 662.9 217.2C666.4 216.6 669.7 215.8 672.6 214.9C675.5 214 678.1 213 680.3 211.9C682.5 210.8 684.2 209.8 685.5 208.8L686.7 207.9L679.3 192L678.2 189.2Z" fill="black"/>
<path d="M794.4 152.1H745V106.9H725.2V217.1H745V171.2H794.4V217.1H814.2V179.7C814.2 173.8 814.2 167.8 814.3 162C814.3 155.9 814.4 149.9 814.4 144.2V106.8H794.4V152.1Z" fill="black"/>
<path d="M884.5 171.2H932.3V152.5H884.5V125.2H938.2V106.9H864.5V217.1H940.2V198.4H884.5V171.2Z" fill="black"/>
<path d="M1085.9 108.4C1084.1 111 1081.9 114 1079.4 117.5C1076.9 120.9 1074.2 124.7 1071.1 129C1068.1 133.3 1065 137.5 1062 141.7L1053 154.2C1050.1 158.3 1047.4 161.9 1045.1 165.1C1042.8 168.3 1040.9 171 1039.3 173.2C1038.8 173.9 1038.4 174.5 1038 175C1037 173.7 1035.8 172 1034.3 169.8C1031.6 166.1 1028.5 161.7 1024.8 156.7L1013.2 140.6C1009.1 134.9 1005.2 129.5 1001.5 124.4L991.8 111C989 107.2 987.2 104.6 986.4 103.2L982.9 97.7V217.2H1002.7V158.2C1004.4 160.6 1006.4 163.4 1008.6 166.5C1011.1 170.1 1013.9 174 1016.9 178.2C1019.9 182.5 1022.8 186.5 1025.4 190.1C1028.1 193.8 1030.4 197.1 1032.4 199.9C1034.4 202.7 1035.8 204.5 1036.5 205.5L1038.2 207.7L1039.7 205.4C1040.4 204.4 1041.6 202.5 1043.5 199.8C1045.4 197.1 1047.5 194 1050 190.5C1052.4 187 1055 183.2 1057.8 179.3C1060.5 175.3 1063.2 171.6 1065.6 168C1068.1 164.4 1070.3 161.2 1072.2 158.4C1072.3 158.3 1072.4 158.2 1072.4 158.1V217.3H1093.3V98.6L1089.9 102.9C1089 103.9 1087.7 105.7 1085.9 108.4Z" fill="black"/>
<path d="M1163.2 106.9H1143.4V217.1H1163.2V106.9Z" fill="black"/>
<path d="M1261.4 161.6C1262 160.6 1262.9 159.2 1264.1 157.3L1270.1 147.8C1272.4 144.3 1274.8 140.3 1277.4 136.2C1280 132.1 1282.4 128.2 1284.7 124.6C1287 121 1289 117.8 1290.7 115.1C1292.3 112.5 1293.5 110.7 1294 109.8L1296 106.8H1271.7L1271.1 107.7C1270.6 108.5 1269.8 109.8 1268.7 111.7C1267.6 113.6 1266.3 115.7 1264.9 118.1C1263.5 120.5 1262 123 1260.4 125.7C1258.8 128.4 1257.3 130.9 1255.9 133.3C1254.5 135.7 1253.2 137.8 1252.1 139.7C1251 141.5 1250.2 142.9 1249.7 143.6L1249.6 143.8C1249.5 143.9 1249.3 144.4 1249 145C1248.7 144.3 1248.4 143.9 1248.4 143.8L1248.3 143.6C1247.8 142.8 1247 141.5 1245.9 139.7C1244.8 137.8 1243.5 135.7 1242 133.3C1240.5 130.9 1239 128.4 1237.3 125.7C1235.6 123 1234.1 120.5 1232.6 118.1C1231.1 115.7 1229.8 113.6 1228.6 111.7C1227.4 109.8 1226.6 108.5 1226.1 107.8L1225.5 106.9H1201.3L1235.8 160.8L1199.8 217.2H1224.3L1229.3 209C1231.5 205.5 1233.8 201.6 1236.2 197.4C1238.6 193.3 1240.9 189.5 1243.1 185.9L1247.5 178.7C1247.7 178.5 1247.8 178.2 1248.2 177.5C1248.3 177.6 1248.3 177.7 1248.4 177.8C1248.8 178.6 1249.2 179.3 1249.7 179.9L1272.8 217H1297.4L1261.4 161.6Z" fill="black"/>
<path d="M160.6 310.8C242.78 310.8 309.4 244.18 309.4 162C309.4 79.82 242.78 13.2 160.6 13.2C78.4201 13.2 11.8 79.82 11.8 162C11.8 244.18 78.4201 310.8 160.6 310.8Z" stroke="black" stroke-width="6.7463" stroke-miterlimit="10" stroke-linecap="round" stroke-linejoin="round"/>
<path d="M160.6 205V310.8" stroke="black" stroke-width="6.7463" stroke-miterlimit="10" stroke-linecap="round" stroke-linejoin="round"/>
<path d="M160.6 13.2V44.5" stroke="black" stroke-width="6.7463" stroke-miterlimit="10" stroke-linecap="round" stroke-linejoin="round"/>
<path d="M160.6 205L59.2 124.8L160.6 44.5L262 124.8L216.7 160.6" stroke="black" stroke-width="6.7463" stroke-miterlimit="10" stroke-linecap="round" stroke-linejoin="round"/>
<path d="M246.4 212.1L262 199.7V124.8" stroke="black" stroke-width="6.7463" stroke-miterlimit="10" stroke-linecap="round" stroke-linejoin="round"/>
<path d="M59.2 124.8V199.7L160.6 280L206.4 243.8" stroke="black" stroke-width="6.7463" stroke-miterlimit="10" stroke-linecap="round" stroke-linejoin="round"/>
<path d="M77 213.8L59.7 243.8H114.9" stroke="black" stroke-width="6.7463" stroke-miterlimit="10" stroke-linecap="round" stroke-linejoin="round"/>
<path d="M160.6 243.8H261.5L160.6 69L107.9 160.4" stroke="black" stroke-width="6.7463" stroke-miterlimit="10" stroke-linecap="round" stroke-linejoin="round"/>
</svg>
