<svg id="svg-anima" xmlns="http://www.w3.org/2000/svg" viewBox="0 0 1000 152">
	<g fill="#ff5147">
		<path id="a1" d="M83.93,0H160l83,152H165.15L154,129.67H86.34L75.81,152H0Zm37,53L103.48,90.6h34.6Z"/>
		<path id="n" d="M220.22,0h71.3l60.76,77.07h0V0h66.18V152h-73.1l-59-72.56h0V152H220.22Z"/>
		<path id="I" d="M431.25,0h72.2V152h-72.2Z"/>
		<path id="m" d="M581.22,66.12V152h-65V0H609.9l38.55,81.8H650L683.39,0h96.67V152H710.57V66.34L670.86,152H620.33L581.22,66.12Z"/>
		<path id="a2" d="M840.86,0H917l83,152H922.09L911,129.67H843.27L832.74,152H756.93Zm37,53L860.42,90.6H895Z"/>
	</g>
</svg>