<svg width="233" height="63" viewBox="0 0 233 63" fill="none" xmlns="http://www.w3.org/2000/svg">
<path d="M45.7453 13.9588C45.4735 21.5141 45.4818 29.6467 45.7453 37.2487C45.9787 29.6492 45.9863 21.5144 45.7453 13.9588ZM69.4136 33.2351C69.4081 32.3227 69.272 31.4308 68.7733 30.6148C68.1867 29.6551 67.3714 29.0613 66.0815 29.1377C65.3174 29.1827 65.2791 29.1785 65.2781 29.9009V38.7201C65.2741 39.1438 65.3012 39.5673 65.3592 39.9877C65.549 41.2994 66.0311 42.5614 66.7756 43.6956C67.5213 44.8315 68.5131 45.8156 69.6897 46.5875C70.8686 47.3607 72.2073 47.9057 73.624 48.1891C75.0419 48.4729 76.508 48.4894 77.9331 48.2378C80.3442 47.8094 82.5204 46.6334 84.0951 44.9077C85.6657 43.1867 86.5359 41.0203 86.5575 38.7777C86.5677 37.3361 86.5575 35.8945 86.5575 34.4529V33.7319V29.7465C86.5575 29.4861 86.5575 29.2038 86.1804 29.1622C85.0478 29.0393 84.0491 29.2404 83.3566 30.1638C82.7816 30.9258 82.4767 31.8315 82.4835 32.7577C82.4752 34.6233 82.4835 36.4889 82.4779 38.3546C82.485 38.8922 82.4291 39.4289 82.3112 39.9556C81.5947 42.9676 78.5725 44.9527 75.1854 44.6415C71.9276 44.3412 69.4471 41.8134 69.4256 38.7462C69.409 36.9096 69.4265 35.0721 69.4136 33.2351ZM22.0023 47.7544C22.0023 48.3143 22.0907 48.3862 22.7086 48.3803C23.5852 48.3776 24.4264 48.0636 25.0552 47.5044C25.8715 46.8037 26.1341 45.9194 26.1331 44.935V30.5318C26.1331 30.2214 26.1264 29.9104 26.1331 29.5992C26.1393 29.2879 25.9664 29.1465 25.6212 29.1394C25.0208 29.1268 24.4465 29.2097 23.9158 29.4785C22.63 30.1275 22.0087 31.1389 22.0041 32.4627C21.9949 34.9905 22.0041 37.5183 22.0041 40.0453C22.0023 42.6158 22.0016 45.1856 22.0023 47.7544ZM36.5864 53.9415L36.6048 54C36.6847 53.9643 36.7676 53.9328 36.8459 53.8932C38.4803 53.0687 40.2173 52.4625 41.9869 51.9359C44.241 51.2652 46.529 51.1913 48.8148 51.7663C50.789 52.2622 52.6978 52.9547 54.5073 53.8313C54.62 53.8856 54.7149 53.9941 54.8795 53.9626C54.8636 53.9348 54.8435 53.9092 54.8199 53.8864C51.9731 51.885 49.1262 49.8832 46.2793 47.881C45.8782 47.5975 45.5542 47.6265 45.1624 47.9054C42.3063 49.9243 39.4474 51.9361 36.5864 53.9415ZM34.8952 25.2861C34.7091 25.5049 34.7963 25.6685 34.9772 25.8426C35.662 26.5073 36.0745 27.3087 36.3582 28.171C36.7083 29.2336 36.8422 30.3266 36.8972 31.4308C36.982 33.1266 36.9556 34.8226 36.9215 36.5187C36.8754 38.78 36.8628 41.0412 36.8834 43.3025C36.9064 45.7974 36.5296 48.2268 35.6593 50.5952C35.3196 51.5186 34.9806 52.4423 34.5042 53.4208C34.581 53.398 34.6556 53.3696 34.7275 53.3358C37.212 51.5059 39.6857 49.6625 42.2743 47.9546C42.6075 47.735 42.6103 47.4586 42.4073 47.1752C42.2032 46.8915 41.9813 46.6188 41.7427 46.3586C41.053 45.6065 40.7803 44.7281 40.7637 43.7673C40.7422 42.5096 40.7152 41.2521 40.6986 39.9952C40.639 35.3603 40.6771 30.7261 40.6157 26.0883C40.5373 20.1397 40.5364 14.1902 40.502 8.24182V8.00309H40.409C40.1234 10.3647 39.8316 12.7205 39.3378 15.0523C38.5642 18.7158 37.4061 22.246 34.8952 25.2859V25.2861ZM145.731 30.9781C145.138 29.6644 144.228 29.1122 142.681 29.147C142.141 29.1583 142.053 29.2224 142.053 29.7142C142.053 32.8943 141.998 36.0742 142.081 39.2532C142.151 41.9143 143.412 44.1581 145.553 45.9279C148.06 47.9988 151.066 48.7102 154.405 48.2802C159.075 47.6791 163.013 43.7442 163.272 39.461C163.365 37.8923 163.29 36.3236 163.329 35.0456V29.9658C163.332 29.8106 163.323 29.6554 163.302 29.5013C163.295 29.4083 163.251 29.3211 163.177 29.2566C163.104 29.1922 163.007 29.1551 162.905 29.1526C161.695 29.0261 160.7 29.3281 160.012 30.2982C159.48 31.0512 159.2 31.9303 159.208 32.8271C159.197 34.8061 159.222 36.7844 159.196 38.7628C159.14 43.0708 154.329 45.9217 150.034 44.1621C147.477 43.1138 146.218 41.217 146.15 38.6866C146.101 36.821 146.134 34.9554 146.14 33.09C146.159 32.3679 146.02 31.6496 145.731 30.9775V30.9781ZM206.31 48.1801C206.159 48.4523 206.043 48.7414 205.863 49.1257C207.618 48.7169 209.307 48.4742 210.75 47.5618C211.281 47.2227 211.618 46.7649 211.681 46.1559C211.724 45.7066 211.792 45.2589 211.839 44.8093C212.056 42.7098 212.01 40.606 211.951 38.5011C211.869 35.5509 210.555 33.1513 208.083 31.2764C206.293 29.9194 204.258 29.1681 201.872 29.3124C200.265 29.4091 198.713 29.722 197.172 30.1087C194.847 30.6973 192.409 30.813 190.03 30.4478C188.558 30.2265 187.15 29.7617 185.68 29.532C183.419 29.1785 181.207 29.1293 179.129 30.2293C175.964 31.9057 173.962 34.3258 173.637 37.6913C173.385 40.338 173.505 42.9946 173.73 45.6481C173.838 46.8861 174.521 47.6189 175.71 48.0648C175.882 48.1292 176.053 48.197 176.226 48.2589C177.157 48.5873 178.122 48.7914 179.087 49.0017C179.232 49.0341 179.421 49.13 179.524 49.0102C179.628 48.8907 179.48 48.745 179.42 48.621C178.823 47.3788 178.2 46.1483 177.991 44.7823C177.871 43.9987 177.768 43.2134 177.724 42.4241C177.643 40.9552 177.544 39.4756 177.729 38.0202C178.126 34.9093 180.876 32.7967 184.32 32.8308C187.119 32.8589 189.119 34.2077 189.958 36.6374C190.028 36.8398 190.093 37.0434 190.15 37.2487C190.976 40.2354 191.801 43.2224 192.625 46.2093C192.652 46.3061 192.699 46.3977 192.764 46.5572C192.808 46.4222 192.828 46.3696 192.843 46.3153C193.587 43.6019 194.334 40.8883 195.084 38.1746C195.315 37.3395 195.542 36.5033 195.909 35.7044C196.248 34.9692 196.814 34.3405 197.537 33.895C198.778 33.1046 200.153 32.7841 201.665 32.8282C204.847 32.9205 207.579 35.3119 207.797 38.2052C207.908 39.662 207.822 41.1155 207.757 42.5672C207.672 44.5186 207.285 46.4154 206.31 48.1801ZM50.8877 18.7861C50.8085 24.1116 50.8785 29.4386 50.7855 34.7642C50.737 37.5327 50.7465 40.3031 50.7557 43.0745C50.7603 44.4795 50.444 45.7651 49.3491 46.8201C49.2475 46.9258 49.1557 47.0394 49.0746 47.1592C48.832 47.4881 48.8885 47.7477 49.2527 47.9875C51.7394 49.6302 54.1231 51.394 56.5078 53.1553C56.6177 53.24 56.7136 53.3631 56.9304 53.3384C56.1356 51.707 55.5957 50.0311 55.1396 48.3269C54.9627 47.6687 54.7877 47.0082 54.7253 46.3305C54.5709 44.6676 54.6154 42.9988 54.5801 41.3325C54.5205 38.48 54.5503 35.6257 54.5365 32.7678C54.5252 31.793 54.5902 30.8188 54.7309 29.8525C54.9283 28.5543 55.2662 27.2957 56.1522 26.2213C56.7311 25.5184 56.7397 25.5212 56.1737 24.78C54.2088 22.2027 53.1404 19.2959 52.4067 16.267C51.747 13.5395 51.3877 10.7736 51.0831 8H50.9642C50.9249 11.598 50.9409 15.1918 50.8877 18.7861ZM106.861 48.3013C107.386 48.3097 107.679 48.0384 107.902 47.6476C110.615 42.8821 113.329 38.1176 116.046 33.354C116.235 33.0425 116.334 32.6924 116.335 32.3362C116.301 31.7673 116 31.1974 115.625 30.6556C115.027 29.7915 114.282 29.0326 113.539 28.2737C113.439 28.1724 113.363 27.986 113.199 28.0192C113.035 28.0524 113.059 28.2498 113.031 28.3831C112.721 29.8992 112.373 31.406 111.635 32.8088C110.21 35.5087 108.625 38.1333 107.126 40.7983C107.065 40.9043 107.021 41.0713 106.852 41.0469C106.683 41.0224 106.645 40.85 106.573 40.728C105.151 38.2179 103.73 35.7064 102.311 33.1938C101.643 32.0118 101.147 30.7553 100.834 29.4558C100.734 29.0419 100.623 28.6305 100.515 28.2186C100.474 28.0634 100.41 27.9132 100.223 28.11C99.2309 29.158 98.1892 30.1756 97.6057 31.485C97.3078 32.1542 97.3655 32.7953 97.7368 33.4429C100.454 38.174 103.163 42.9092 105.863 47.6484C106.081 48.0291 106.358 48.2937 106.861 48.3013ZM127.16 47.2778C127.16 48.2411 127.301 48.3455 128.361 48.1675L128.407 48.1582C130.098 47.8503 131.23 46.592 131.232 44.9842C131.237 39.9853 131.237 34.9864 131.232 29.9875C131.232 28.9148 131.085 28.8071 129.906 29.0123C129.86 29.0199 129.813 29.0326 129.77 29.0427C128.234 29.3897 127.179 30.5844 127.164 32.0693C127.145 34.6132 127.159 37.1531 127.159 39.6944H127.155C127.155 42.2225 127.157 44.7503 127.16 47.2778Z" fill="black"/>
</svg>
