<svg width="200" height="25" viewBox="0 0 200 25" fill="none" xmlns="http://www.w3.org/2000/svg">
<path d="M33.6543 24.2867V0H38.6592L53.9042 17.7428V0H58.5065V24.2867H53.5015L38.1961 6.52143V24.2867H33.6543Z" fill="black"/>
<path d="M62.418 24.2867V0H85.3037V4.49754H67.0204V9.89459H81.7253V14.3921H67.0204V19.7892H85.3153V24.2867H62.418Z" fill="black"/>
<path d="M93.5268 24.2867C92.2572 24.2779 91.0421 23.7811 90.1442 22.9037C89.2464 22.0263 88.738 20.8388 88.729 19.598V0H93.2852V18.6086C93.2852 19.2382 93.3255 19.5924 93.406 19.6711C93.4866 19.7498 93.849 19.7892 94.4933 19.7892H107.782C108.403 19.7892 108.76 19.7498 108.852 19.6711C108.944 19.5924 108.99 19.2382 108.99 18.6086V0H113.593V19.598C113.583 20.8388 113.075 22.0263 112.177 22.9037C111.279 23.7811 110.064 24.2779 108.795 24.2867H93.5268Z" fill="black"/>
<path d="M117.358 24.2867V0.0337033H137.378C138.015 0.0256498 138.648 0.146316 139.236 0.388152C139.824 0.629989 140.355 0.987793 140.795 1.43918C141.246 1.86516 141.604 2.37632 141.848 2.94166C142.091 3.507 142.214 4.11473 142.21 4.72801V11.2663C142.218 11.8827 142.097 12.4942 141.854 13.0628C141.61 13.6315 141.25 14.1452 140.795 14.572C140.352 15.018 139.82 15.3707 139.232 15.6085C138.645 15.8464 138.014 15.9643 137.378 15.955H136.031L142.175 23.0386V24.2867H137.205L130.046 15.955L121.9 15.9887V24.2867H117.358ZM123.111 11.4687H136.4C137.021 11.4687 137.369 11.435 137.452 11.3675C137.536 11.3 137.573 10.9515 137.573 10.3218V5.67812C137.573 5.04846 137.53 4.69428 137.452 4.61557C137.375 4.53687 137.021 4.49751 136.4 4.49751H123.111C122.466 4.49751 122.104 4.53687 122.023 4.61557C121.94 4.69428 121.902 5.04846 121.902 5.67812V10.3218C121.902 10.9515 121.94 11.3 122.023 11.3675C122.107 11.435 122.463 11.4687 123.111 11.4687Z" fill="black"/>
<path d="M150.583 24.2876C149.314 24.2788 148.098 23.7819 147.201 22.9046C146.303 22.0272 145.794 20.8397 145.785 19.5989V4.70081C145.777 4.08445 145.898 3.47295 146.142 2.90429C146.385 2.33562 146.745 1.82194 147.201 1.39512C147.637 0.950369 148.163 0.598102 148.745 0.360193C149.327 0.122283 149.953 0.00380988 150.583 0.0121283H165.828C166.459 0.00481149 167.084 0.123741 167.666 0.361591C168.248 0.599441 168.774 0.951174 169.211 1.39512C169.665 1.82286 170.024 2.33671 170.268 2.90516C170.511 3.47361 170.633 4.08466 170.626 4.70081V19.5989C170.617 20.8397 170.109 22.0272 169.211 22.9046C168.313 23.7819 167.098 24.2788 165.828 24.2876H150.583ZM151.55 19.7901H164.839C165.46 19.7901 165.814 19.7507 165.909 19.672C166.004 19.5933 166.047 19.2391 166.047 18.6095V5.67903C166.047 5.04937 165.998 4.69519 165.909 4.61649C165.82 4.53778 165.46 4.49842 164.839 4.49842H151.55C150.903 4.49842 150.543 4.53778 150.462 4.61649C150.382 4.69519 150.342 5.04937 150.342 5.67903V18.6095C150.342 19.2391 150.379 19.5933 150.462 19.672C150.546 19.7507 150.903 19.8013 151.55 19.8013V19.7901Z" fill="black"/>
<path d="M174.432 24.2867V0H179.437L194.682 17.7428V0H199.284V24.2867H194.279L178.988 6.52143V24.2867H174.432Z" fill="black"/>
<path d="M26.0002 12.093C26.0045 13.8536 25.5944 15.5937 24.7987 17.1906L17.5688 13.3023C17.3205 13.169 17.1143 12.9771 16.9709 12.7459C16.8275 12.5146 16.752 12.2523 16.752 11.9852C16.752 11.7182 16.8275 11.4558 16.9709 11.2246C17.1143 10.9934 17.3205 10.8015 17.5688 10.6682L24.7086 6.82751C25.5608 8.4691 26.0024 10.2694 26.0002 12.093Z" fill="#68C6E6"/>
<path d="M8.61754 13.3023L1.24344 17.2718C0.410144 15.6235 -0.0146906 13.8217 0.000387775 11.9998C0.0154661 10.1778 0.470071 8.38238 1.33055 6.74634L8.61754 10.6654C8.86654 10.7985 9.07343 10.9905 9.2173 11.222C9.36118 11.4535 9.43695 11.7163 9.43695 11.9839C9.43695 12.2514 9.36118 12.5142 9.2173 12.7457C9.07343 12.9772 8.86654 13.1692 8.61754 13.3023Z" fill="#68C6E6"/>
<path d="M12.204 0V7.73449C12.204 8.00146 12.1286 8.26372 11.9853 8.49489C11.842 8.72606 11.6359 8.91799 11.3878 9.05136C11.1396 9.18473 10.8581 9.25483 10.5717 9.25462C10.2852 9.25442 10.0039 9.1839 9.7559 9.05017L2.40283 5.09475C3.52459 3.61733 4.9872 2.39285 6.68324 1.51122C8.37929 0.629591 10.2657 0.11321 12.204 0Z" fill="#68C6E6"/>
<path d="M23.684 5.19569L16.5202 9.05034C16.2725 9.18428 15.9912 9.25495 15.7049 9.25523C15.4185 9.25551 15.1371 9.18539 14.8891 9.05194C14.6411 8.91849 14.4353 8.72643 14.2924 8.49515C14.1494 8.26387 14.0745 8.00155 14.0752 7.73467V0.0169678C15.988 0.164508 17.8419 0.705498 19.5034 1.60099C21.165 2.49647 22.5927 3.72417 23.684 5.19569Z" fill="white"/>
<path d="M12.2129 16.3227V24.186C10.2516 24.0766 8.34253 23.5537 6.62965 22.6566C4.91677 21.7595 3.4448 20.5117 2.32471 19.0073L9.76488 15.0071C10.0128 14.8733 10.2941 14.8028 10.5806 14.8026C10.8671 14.8024 11.1485 14.8725 11.3967 15.0059C11.6448 15.1392 11.8509 15.3312 11.9942 15.5623C12.1375 15.7935 12.2129 16.0558 12.2129 16.3227Z" fill="#68C6E6"/>
<path d="M23.7592 18.8982C22.6698 20.3943 21.2349 21.6443 19.5598 22.5564C17.8846 23.4685 16.0117 24.0196 14.0782 24.1693V16.3312C14.0763 16.064 14.1501 15.8011 14.2922 15.569C14.4343 15.337 14.6397 15.144 14.8875 15.0096C15.1353 14.8753 15.4168 14.8043 15.7035 14.8038C15.9902 14.8034 16.2719 14.8735 16.5202 15.0071L23.7592 18.8982Z" fill="#68C6E6"/>
</svg>
