<svg width="151" height="24" viewBox="0 0 151 24" fill="none" xmlns="http://www.w3.org/2000/svg">
<g clip-path="url(#clip0_611_151)">
<path fill-rule="evenodd" clip-rule="evenodd" d="M0 -6.10352e-05C0 -6.10352e-05 1.20119 0.355975 3.10064 0.902173L3.61166 1.04886C3.87476 1.12426 4.14899 1.20264 4.43325 1.28365L5.01478 1.44904C6.89652 1.98318 9.1503 2.61263 11.4926 3.2439L12.2349 3.44319C12.7313 3.57595 13.2302 3.70836 13.7292 3.83953L14.4772 4.03526C18.7122 5.13796 22.8483 6.12037 25.2609 6.44666C25.497 6.4786 25.8842 6.55661 26.2958 6.60177L26.451 6.61702C27.906 6.74202 29.4664 6.34372 25.704 2.03783L36.1902 5.75095C38.392 6.53069 40.2623 8.04352 41.4908 10.0389L50.087 24C50.087 24 45.901 21.6704 41.2561 19.1263L40.6202 18.7783L39.6603 18.2538C36.1346 16.3297 32.589 14.4201 30.5959 13.4174C30.3481 13.2928 29.7913 13.0291 29.1569 12.7995L28.9822 12.7379C28.8352 12.6875 28.6854 12.6396 28.5354 12.5964L28.3554 12.5468C26.4684 12.0525 24.7232 12.4192 28.559 17.7144L0 -6.10352e-05ZM67.0696 5.26516C67.2653 5.25529 71.7664 5.06818 71.7664 8.75351L71.7667 8.81295C71.7628 9.18504 71.6497 11.1966 69.6844 11.7748C69.6844 11.7748 72.0516 12.5202 72.0435 14.9718C72.0424 15.31 72.0415 15.6084 72.041 15.8715L72.0401 16.4058C72.04 16.459 72.04 16.5102 72.0399 16.5595L72.04 17.0632C72.04 17.0983 72.0401 17.1317 72.0401 17.1636L72.0408 17.41C72.0408 17.4331 72.0409 17.4549 72.041 17.4754L72.0419 17.6271C72.0419 17.6405 72.042 17.6529 72.0421 17.6642L72.0429 17.7417C72.0429 17.7477 72.043 17.753 72.0431 17.7576L72.0435 17.7826H67.6726L67.6724 15.6937C67.6686 15.5784 67.5747 13.8486 65.4348 13.8486H57.8222V17.7826H53.2609V5.26551L67.0696 5.26516ZM91.8696 5.26086V8.65987H84.7347V17.7826H80.2342V8.65987H73.087V5.26086H91.8696ZM150.304 5.26086V8.65987H143.169V17.7826H138.669V8.65987H131.522V5.26086H150.304ZM109.609 5.26086V8.66334H97.2791V10.4882H105.322V13.6699H97.2791V17.7826H92.913V5.26561H94.8379V5.26086H109.609ZM115.189 5.26086V9.47087L122.318 5.26086L129.622 5.28412L119.996 10.9493L130.478 17.7826H123.205L115.189 12.5368V17.7826H110.652V5.26086H115.189ZM59.6462 8.66383L57.8222 8.66327V10.8089H65.9835C65.9835 10.8089 67.2968 10.9391 67.2968 9.66819C67.2968 8.99674 66.8917 8.69851 66.116 8.68076C65.7986 8.67361 64.3529 8.66938 62.7551 8.66688L62.2183 8.66611C62.1283 8.66599 62.0382 8.66587 61.9481 8.66576L61.4094 8.66517C61.3201 8.66508 61.2312 8.66499 61.1429 8.66491L59.8784 8.66396C59.7996 8.66391 59.7221 8.66387 59.6462 8.66383Z" fill="black"/>
</g>
<defs>
<clipPath id="clip0_611_151">
<rect width="151" height="24" fill="white"/>
</clipPath>
</defs>
</svg>
