<?xml version="1.0" encoding="UTF-8"?>
<svg width="124px" height="41px" viewBox="0 0 124 41" version="1.1" xmlns="http://www.w3.org/2000/svg" xmlns:xlink="http://www.w3.org/1999/xlink">
    <!-- Generator: Sketch 56.3 (81716) - https://sketch.com -->
    <title>logo</title>
    <desc>Created with Sketch.</desc>
    <defs>
        <linearGradient x1="0%" y1="57.5091105%" x2="100%" y2="57.5091105%" id="linearGradient-1">
            <stop stop-color="#7983FF" offset="0%"></stop>
            <stop stop-color="#00F8FF" offset="100%"></stop>
        </linearGradient>
        <path d="M37.8290631,32.3023413 L32.1731502,26.3572436 L9.4716319,37.7953701 L9.41066636,35.0847677 L32.0463902,23.6780265 L37.7747373,29.6955517 L37.8290631,32.3023413 Z M0.0845067022,28.4097207 L1.72031501,27.5888747 L3.31447358,29.2607448 L3.74907948,29.7194528 L5.31788604,31.3671804 L5.53579261,31.5959309 L5.75309556,31.8258885 L8.80680561,35.0308092 L8.86777116,37.6442379 L4.11728725,32.6467344 L3.89998431,32.4228125 L3.68207774,32.1934585 L2.11327117,30.546938 L1.67866528,30.0870228 L0.0845067022,28.4097207 Z M41.6442389,28.1022656 L43.0265271,27.4021322 L44.7951316,29.2611069 L43.4128434,29.9546011 L43.1351785,30.0994562 L42.8514775,30.2382758 L41.553696,30.8967633 L41.2760311,31.0349792 L40.99233,31.1798344 L38.4450566,32.459992 L38.3786584,29.7499931 L39.2231218,29.3214633 L39.5068229,29.1760045 L39.7850914,29.0377885 L41.0822693,28.3859403 L41.366574,28.2410851 L41.6442389,28.1022656 Z M18.0004105,11.4676408 L17.1311987,10.5562603 L18.7724395,9.72937871 L19.6362188,10.6407592 L18.0004105,11.4676408 Z" id="path-2"></path>
        <linearGradient x1="0%" y1="57.5091105%" x2="100%" y2="57.5091105%" id="linearGradient-3">
            <stop stop-color="#7983FF" offset="0%"></stop>
            <stop stop-color="#00F8FF" offset="100%"></stop>
        </linearGradient>
        <path d="M37.7506529,28.7958804 L32.1732106,22.9352816 L9.39261814,34.415054 L9.32622002,31.3067034 L30.8090309,20.4787793 L31.092732,20.3399597 L31.3703969,20.1951046 L31.9619438,19.8993586 L37.6842548,25.9168839 L37.7083996,26.8524068 L37.7138321,27.2996472 L37.7265081,27.7523196 L37.7506529,28.7958804 Z M41.1368365,24.5410011 L42.7732484,23.713516 L44.7953731,25.8386621 L43.1589611,26.6649401 L42.8758637,26.8037597 L42.591559,26.9492184 L41.2098744,27.6433161 L40.9316059,27.7821356 L40.6479048,27.9263872 L39.350727,28.5788391 L39.0724585,28.7230907 L38.7887574,28.8625138 L38.3662239,29.0737609 L38.3481153,28.4038057 L38.3420791,27.9511333 L38.3306103,27.5099286 L38.2937896,25.9774816 L38.6318164,25.8084839 L38.9094812,25.6630252 L39.1931823,25.5248092 L40.5754705,24.8246759 L40.8597752,24.6858563 L41.1368365,24.5410011 Z M19.1168647,9.22250632 L18.8995618,8.9931523 L17.1309572,7.13417759 L18.9418151,6.22279713 L20.7104197,8.08177184 L20.9277226,8.3105223 L21.1450256,8.53444426 L22.0082012,9.44582471 L20.1973433,10.3572052 L19.3341677,9.44582471 L19.1168647,9.22250632 Z M0.0845067022,24.9875172 L1.87785965,24.082776 L3.64586058,25.9351115 L3.86316353,26.1705011 L3.86919972,26.1705011 L4.08046648,26.3938195 L5.68066124,28.0711217 L5.89796419,28.3016828 L6.11466352,28.5243977 L7.68407371,30.1781609 L7.90137665,30.4069113 L8.11928322,30.6308333 L8.72290252,31.2645747 L8.78869703,34.1381392 L6.31989408,31.5416102 L6.10319476,31.3128597 L5.88528819,31.0835057 L4.315878,29.4351746 L4.09857506,29.2064241 L3.88127211,28.9770701 L2.28771715,27.2991643 L2.0704142,27.0758459 L1.84767868,26.8404563 L0.0845067022,24.9875172 Z" id="path-4"></path>
        <linearGradient x1="0%" y1="57.5091105%" x2="100%" y2="57.5091105%" id="linearGradient-5">
            <stop stop-color="#7983FF" offset="0%"></stop>
            <stop stop-color="#00F8FF" offset="100%"></stop>
        </linearGradient>
        <path d="M37.9015577,35.4050184 L32.2577173,29.4719919 L9.54352296,40.9155505 L9.48919723,38.4650839 L32.0464505,27.0999885 L37.8532682,33.2020126 L37.9015577,35.4050184 Z M0.169254852,31.524469 L1.54550686,30.8297677 L3.11552066,32.4774953 L3.54952294,32.9368069 L8.88551756,38.53727 L8.89095014,38.5499449 L8.9398433,40.7402758 L2.17327093,33.6303011 L1.95596798,33.400947 L1.73866504,33.171593 L0.169254852,31.524469 Z M41.9875775,31.3549884 L43.2919988,30.6971045 L44.8795176,32.3689747 L43.5817361,33.0268586 L43.3040712,33.1662817 L43.0203701,33.3111368 L38.511334,35.579931 L38.4570082,33.1294643 L41.4262116,31.6386632 L41.7099126,31.4932044 L41.9875775,31.3549884 Z" id="path-6"></path>
        <linearGradient x1="0%" y1="57.5091105%" x2="100%" y2="57.5091105%" id="linearGradient-7">
            <stop stop-color="#7983FF" offset="0%"></stop>
            <stop stop-color="#00F8FF" offset="100%"></stop>
        </linearGradient>
    </defs>
    <g id="Page-1" stroke="none" stroke-width="1" fill="none" fill-rule="evenodd">
        <g id="Tranching" transform="translate(-288.000000, -39.000000)">
            <g id="logo" transform="translate(288.000000, 39.000000)">
                <path d="M56.6,20 L56.6,10.496 L60.072,10.496 L60.072,8.672 L51.112,8.672 L51.112,10.496 L54.584,10.496 L54.584,20 L56.6,20 Z M63.192,20 L63.192,15.888 C63.192,15.7813333 63.216,15.6213333 63.264,15.408 C63.312,15.1946667 63.408,14.9813333 63.552,14.768 C63.696,14.5546667 63.904,14.3653333 64.176,14.2 C64.448,14.0346667 64.808,13.952 65.256,13.952 C65.4053333,13.952 65.5573333,13.9653333 65.712,13.992 C65.8666667,14.0186667 66.024,14.0533333 66.184,14.096 L66.184,14.096 L66.184,12.24 C66.0666667,12.208 65.952,12.1813333 65.84,12.16 C65.728,12.1386667 65.6133333,12.128 65.496,12.128 C64.984,12.128 64.5306667,12.2506667 64.136,12.496 C63.7413333,12.7413333 63.4373333,13.088 63.224,13.536 L63.224,13.536 L63.192,13.536 L63.192,12.32 L61.272,12.32 L61.272,20 L63.192,20 Z M69.784,20.192 C70.296,20.192 70.7653333,20.0933333 71.192,19.896 C71.6186667,19.6986667 71.9706667,19.3813333 72.248,18.944 L72.248,18.944 L72.296,18.944 L72.296,20 L74.024,20 L74.024,15.584 C74.024,15.4026667 74.0186667,15.192 74.008,14.952 C73.9973333,14.712 73.9626667,14.464 73.904,14.208 C73.8453333,13.952 73.7493333,13.6986667 73.616,13.448 C73.4826667,13.1973333 73.2933333,12.976 73.048,12.784 C72.8026667,12.592 72.4933333,12.4346667 72.12,12.312 C71.7466667,12.1893333 71.288,12.128 70.744,12.128 C70.136,12.128 69.5466667,12.224 68.976,12.416 C68.4053333,12.608 67.9066667,12.9226667 67.48,13.36 L67.48,13.36 L68.488,14.368 C68.744,14.1226667 69.048,13.928 69.4,13.784 C69.752,13.64 70.1306667,13.568 70.536,13.568 C71.048,13.568 71.4693333,13.688 71.8,13.928 C72.1306667,14.168 72.296,14.528 72.296,15.008 L72.296,15.008 L72.296,15.216 L71.816,15.216 C71.496,15.216 71.1546667,15.224 70.792,15.24 C70.4293333,15.256 70.0693333,15.2933333 69.712,15.352 C69.3546667,15.4106667 69.0106667,15.4986667 68.68,15.616 C68.3493333,15.7333333 68.0586667,15.8906667 67.808,16.088 C67.5573333,16.2853333 67.3573333,16.5306667 67.208,16.824 C67.0586667,17.1173333 66.984,17.472 66.984,17.888 C66.984,18.272 67.064,18.608 67.224,18.896 C67.384,19.184 67.5946667,19.424 67.856,19.616 C68.1173333,19.808 68.416,19.952 68.752,20.048 C69.088,20.144 69.432,20.192 69.784,20.192 Z M70.248,18.752 C70.088,18.752 69.928,18.7333333 69.768,18.696 C69.608,18.6586667 69.464,18.5973333 69.336,18.512 C69.208,18.4266667 69.104,18.3226667 69.024,18.2 C68.944,18.0773333 68.904,17.9253333 68.904,17.744 C68.904,17.4666667 69.0053333,17.2506667 69.208,17.096 C69.4106667,16.9413333 69.6586667,16.824 69.952,16.744 C70.2453333,16.664 70.5573333,16.6133333 70.888,16.592 C71.2186667,16.5706667 71.5173333,16.56 71.784,16.56 L71.784,16.56 L72.184,16.56 L72.184,16.992 C72.184,17.536 72.0266667,17.9653333 71.712,18.28 C71.3973333,18.5946667 70.9093333,18.752 70.248,18.752 Z M78.008,20 L78.008,15.808 C78.008,15.552 78.04,15.3066667 78.104,15.072 C78.168,14.8373333 78.272,14.6293333 78.416,14.448 C78.56,14.2666667 78.7413333,14.1226667 78.96,14.016 C79.1786667,13.9093333 79.448,13.856 79.768,13.856 C80.0986667,13.856 80.36,13.9333333 80.552,14.088 C80.744,14.2426667 80.8853333,14.4346667 80.976,14.664 C81.0666667,14.8933333 81.1226667,15.1386667 81.144,15.4 C81.1653333,15.6613333 81.176,15.8986667 81.176,16.112 L81.176,16.112 L81.176,20 L83.096,20 L83.096,15.152 C83.096,14.7573333 83.048,14.3786667 82.952,14.016 C82.856,13.6533333 82.696,13.3333333 82.472,13.056 C82.248,12.7786667 81.9573333,12.5546667 81.6,12.384 C81.2426667,12.2133333 80.808,12.128 80.296,12.128 C79.656,12.128 79.1493333,12.2693333 78.776,12.552 C78.4026667,12.8346667 78.1253333,13.168 77.944,13.552 L77.944,13.552 L77.912,13.552 L77.912,12.32 L76.088,12.32 L76.088,20 L78.008,20 Z M89.064,20.192 C89.2346667,20.192 89.4373333,20.1733333 89.672,20.136 C89.9066667,20.0986667 90.152,20.0373333 90.408,19.952 C90.664,19.8666667 90.9173333,19.7546667 91.168,19.616 C91.4186667,19.4773333 91.64,19.312 91.832,19.12 L91.832,19.12 L90.552,17.744 C90.3706667,17.9786667 90.152,18.1573333 89.896,18.28 C89.64,18.4026667 89.3626667,18.464 89.064,18.464 C88.712,18.464 88.3973333,18.4 88.12,18.272 C87.8426667,18.144 87.6053333,17.9733333 87.408,17.76 C87.2106667,17.5466667 87.0613333,17.3013333 86.96,17.024 C86.8586667,16.7466667 86.808,16.4586667 86.808,16.16 C86.808,15.8613333 86.8586667,15.5733333 86.96,15.296 C87.0613333,15.0186667 87.2106667,14.7733333 87.408,14.56 C87.6053333,14.3466667 87.8426667,14.176 88.12,14.048 C88.3973333,13.92 88.712,13.856 89.064,13.856 C89.32,13.856 89.5706667,13.9253333 89.816,14.064 C90.0613333,14.2026667 90.296,14.3893333 90.52,14.624 L90.52,14.624 L91.848,13.296 C91.4746667,12.8906667 91.04,12.5946667 90.544,12.408 C90.048,12.2213333 89.5546667,12.128 89.064,12.128 C88.488,12.128 87.944,12.224 87.432,12.416 C86.92,12.608 86.4773333,12.88 86.104,13.232 C85.7306667,13.584 85.4346667,14.008 85.216,14.504 C84.9973333,15 84.888,15.552 84.888,16.16 C84.888,16.768 84.9973333,17.32 85.216,17.816 C85.4346667,18.312 85.7306667,18.736 86.104,19.088 C86.4773333,19.44 86.92,19.712 87.432,19.904 C87.944,20.096 88.488,20.192 89.064,20.192 Z M94.904,20 L94.904,15.808 C94.904,15.552 94.936,15.3066667 95,15.072 C95.064,14.8373333 95.168,14.6293333 95.312,14.448 C95.456,14.2666667 95.6373333,14.1226667 95.856,14.016 C96.0746667,13.9093333 96.344,13.856 96.664,13.856 C96.9946667,13.856 97.256,13.9333333 97.448,14.088 C97.64,14.2426667 97.7813333,14.4346667 97.872,14.664 C97.9626667,14.8933333 98.0186667,15.1386667 98.04,15.4 C98.0613333,15.6613333 98.072,15.8986667 98.072,16.112 L98.072,16.112 L98.072,20 L99.992,20 L99.992,15.152 C99.992,14.7573333 99.944,14.3786667 99.848,14.016 C99.752,13.6533333 99.592,13.3333333 99.368,13.056 C99.144,12.7786667 98.8533333,12.5546667 98.496,12.384 C98.1386667,12.2133333 97.704,12.128 97.192,12.128 C96.5946667,12.128 96.1066667,12.2586667 95.728,12.52 C95.3493333,12.7813333 95.0853333,13.072 94.936,13.392 L94.936,13.392 L94.904,13.392 L94.904,7.904 L92.984,7.904 L92.984,20 L94.904,20 Z M103.144,10.864 C103.496,10.864 103.792,10.7546667 104.032,10.536 C104.272,10.3173333 104.392,10.0426667 104.392,9.712 C104.392,9.38133333 104.272,9.10666667 104.032,8.888 C103.792,8.66933333 103.496,8.56 103.144,8.56 C102.792,8.56 102.501333,8.67466667 102.272,8.904 C102.042667,9.13333333 101.928,9.40266667 101.928,9.712 C101.928,10.0213333 102.042667,10.2906667 102.272,10.52 C102.501333,10.7493333 102.792,10.864 103.144,10.864 Z M104.12,20 L104.12,12.32 L102.2,12.32 L102.2,20 L104.12,20 Z M108.248,20 L108.248,15.808 C108.248,15.552 108.28,15.3066667 108.344,15.072 C108.408,14.8373333 108.512,14.6293333 108.656,14.448 C108.8,14.2666667 108.981333,14.1226667 109.2,14.016 C109.418667,13.9093333 109.688,13.856 110.008,13.856 C110.338667,13.856 110.6,13.9333333 110.792,14.088 C110.984,14.2426667 111.125333,14.4346667 111.216,14.664 C111.306667,14.8933333 111.362667,15.1386667 111.384,15.4 C111.405333,15.6613333 111.416,15.8986667 111.416,16.112 L111.416,16.112 L111.416,20 L113.336,20 L113.336,15.152 C113.336,14.7573333 113.288,14.3786667 113.192,14.016 C113.096,13.6533333 112.936,13.3333333 112.712,13.056 C112.488,12.7786667 112.197333,12.5546667 111.84,12.384 C111.482667,12.2133333 111.048,12.128 110.536,12.128 C109.896,12.128 109.389333,12.2693333 109.016,12.552 C108.642667,12.8346667 108.365333,13.168 108.184,13.552 L108.184,13.552 L108.152,13.552 L108.152,12.32 L106.328,12.32 L106.328,20 L108.248,20 Z M119.08,23.84 C119.826667,23.84 120.472,23.7333333 121.016,23.52 C121.56,23.3066667 122.010667,23.0053333 122.368,22.616 C122.725333,22.2266667 122.989333,21.752 123.16,21.192 C123.330667,20.632 123.416,20.0053333 123.416,19.312 L123.416,19.312 L123.416,12.32 L121.592,12.32 L121.592,13.472 L121.56,13.472 C121.282667,13.0026667 120.909333,12.6613333 120.44,12.448 C119.970667,12.2346667 119.464,12.128 118.92,12.128 C118.322667,12.128 117.792,12.232 117.328,12.44 C116.864,12.648 116.466667,12.9333333 116.136,13.296 C115.805333,13.6586667 115.554667,14.0853333 115.384,14.576 C115.213333,15.0666667 115.128,15.5946667 115.128,16.16 C115.128,16.704 115.218667,17.216 115.4,17.696 C115.581333,18.176 115.84,18.592 116.176,18.944 C116.512,19.296 116.914667,19.576 117.384,19.784 C117.853333,19.992 118.376,20.096 118.952,20.096 C119.432,20.096 119.901333,20.0026667 120.36,19.816 C120.818667,19.6293333 121.186667,19.3493333 121.464,18.976 L121.464,18.976 L121.496,18.976 L121.496,19.536 C121.496,19.92 121.456,20.2693333 121.376,20.584 C121.296,20.8986667 121.162667,21.168 120.976,21.392 C120.789333,21.616 120.538667,21.792 120.224,21.92 C119.909333,22.048 119.522667,22.112 119.064,22.112 C118.52,22.112 118.04,22.016 117.624,21.824 C117.208,21.632 116.808,21.36 116.424,21.008 L116.424,21.008 L115.272,22.576 C115.816,23.056 116.408,23.3866667 117.048,23.568 C117.688,23.7493333 118.365333,23.84 119.08,23.84 Z M119.304,18.368 C118.984,18.368 118.685333,18.3093333 118.408,18.192 C118.130667,18.0746667 117.890667,17.9146667 117.688,17.712 C117.485333,17.5093333 117.328,17.2746667 117.216,17.008 C117.104,16.7413333 117.048,16.4533333 117.048,16.144 C117.048,15.8026667 117.104,15.4906667 117.216,15.208 C117.328,14.9253333 117.482667,14.6853333 117.68,14.488 C117.877333,14.2906667 118.114667,14.136 118.392,14.024 C118.669333,13.912 118.978667,13.856 119.32,13.856 C120.024,13.856 120.578667,14.064 120.984,14.48 C121.389333,14.896 121.592,15.44 121.592,16.112 C121.592,16.432 121.538667,16.7306667 121.432,17.008 C121.325333,17.2853333 121.173333,17.5226667 120.976,17.72 C120.778667,17.9173333 120.538667,18.0746667 120.256,18.192 C119.973333,18.3093333 119.656,18.368 119.304,18.368 Z M54.28,36 L54.28,31.312 L55.72,31.312 C56.3173333,31.312 56.8906667,31.2693333 57.44,31.184 C57.9893333,31.0986667 58.472,30.936 58.888,30.696 C59.304,30.456 59.6346667,30.1173333 59.88,29.68 C60.1253333,29.2426667 60.248,28.6666667 60.248,27.952 C60.248,27.3226667 60.1333333,26.7973333 59.904,26.376 C59.6746667,25.9546667 59.368,25.6186667 58.984,25.368 C58.6,25.1173333 58.1546667,24.9386667 57.648,24.832 C57.1413333,24.7253333 56.616,24.672 56.072,24.672 L56.072,24.672 L52.264,24.672 L52.264,36 L54.28,36 Z M55.496,29.584 L54.28,29.584 L54.28,26.4 L55.72,26.4 C55.9866667,26.4 56.264,26.416 56.552,26.448 C56.84,26.48 57.1013333,26.552 57.336,26.664 C57.5706667,26.776 57.7626667,26.936 57.912,27.144 C58.0613333,27.352 58.136,27.632 58.136,27.984 C58.136,28.368 58.0533333,28.6666667 57.888,28.88 C57.7226667,29.0933333 57.5093333,29.2533333 57.248,29.36 C56.9866667,29.4666667 56.7013333,29.5306667 56.392,29.552 C56.0826667,29.5733333 55.784,29.584 55.496,29.584 L55.496,29.584 Z M63.784,36 L63.784,31.888 C63.784,31.7813333 63.808,31.6213333 63.856,31.408 C63.904,31.1946667 64,30.9813333 64.144,30.768 C64.288,30.5546667 64.496,30.3653333 64.768,30.2 C65.04,30.0346667 65.4,29.952 65.848,29.952 C65.9973333,29.952 66.1493333,29.9653333 66.304,29.992 C66.4586667,30.0186667 66.616,30.0533333 66.776,30.096 L66.776,30.096 L66.776,28.24 C66.6586667,28.208 66.544,28.1813333 66.432,28.16 C66.32,28.1386667 66.2053333,28.128 66.088,28.128 C65.576,28.128 65.1226667,28.2506667 64.728,28.496 C64.3333333,28.7413333 64.0293333,29.088 63.816,29.536 L63.816,29.536 L63.784,29.536 L63.784,28.32 L61.864,28.32 L61.864,36 L63.784,36 Z M71.88,36.192 C72.456,36.192 73,36.096 73.512,35.904 C74.024,35.712 74.4666667,35.44 74.84,35.088 C75.2133333,34.736 75.5093333,34.312 75.728,33.816 C75.9466667,33.32 76.056,32.768 76.056,32.16 C76.056,31.552 75.9466667,31 75.728,30.504 C75.5093333,30.008 75.2133333,29.584 74.84,29.232 C74.4666667,28.88 74.024,28.608 73.512,28.416 C73,28.224 72.456,28.128 71.88,28.128 C71.304,28.128 70.76,28.224 70.248,28.416 C69.736,28.608 69.2933333,28.88 68.92,29.232 C68.5466667,29.584 68.2506667,30.008 68.032,30.504 C67.8133333,31 67.704,31.552 67.704,32.16 C67.704,32.768 67.8133333,33.32 68.032,33.816 C68.2506667,34.312 68.5466667,34.736 68.92,35.088 C69.2933333,35.44 69.736,35.712 70.248,35.904 C70.76,36.096 71.304,36.192 71.88,36.192 Z M71.88,34.464 C71.528,34.464 71.2133333,34.4 70.936,34.272 C70.6586667,34.144 70.4213333,33.9733333 70.224,33.76 C70.0266667,33.5466667 69.8773333,33.3013333 69.776,33.024 C69.6746667,32.7466667 69.624,32.4586667 69.624,32.16 C69.624,31.8613333 69.6746667,31.5733333 69.776,31.296 C69.8773333,31.0186667 70.0266667,30.7733333 70.224,30.56 C70.4213333,30.3466667 70.6586667,30.176 70.936,30.048 C71.2133333,29.92 71.528,29.856 71.88,29.856 C72.232,29.856 72.5466667,29.92 72.824,30.048 C73.1013333,30.176 73.3386667,30.3466667 73.536,30.56 C73.7333333,30.7733333 73.8826667,31.0186667 73.984,31.296 C74.0853333,31.5733333 74.136,31.8613333 74.136,32.16 C74.136,32.4586667 74.0853333,32.7466667 73.984,33.024 C73.8826667,33.3013333 73.7333333,33.5466667 73.536,33.76 C73.3386667,33.9733333 73.1013333,34.144 72.824,34.272 C72.5466667,34.4 72.232,34.464 71.88,34.464 Z M81.048,36.192 C81.272,36.192 81.5306667,36.1733333 81.824,36.136 C82.1173333,36.0986667 82.3653333,36.032 82.568,35.936 L82.568,35.936 L82.568,34.32 C82.4506667,34.4053333 82.2906667,34.4666667 82.088,34.504 C81.8853333,34.5413333 81.6986667,34.56 81.528,34.56 C81.1013333,34.56 80.816,34.448 80.672,34.224 C80.528,34 80.456,33.696 80.456,33.312 L80.456,33.312 L80.456,29.952 L82.568,29.952 L82.568,28.32 L80.456,28.32 L80.456,26.096 L78.536,26.096 L78.536,28.32 L76.952,28.32 L76.952,29.952 L78.536,29.952 L78.536,33.472 C78.536,33.92 78.5706667,34.3146667 78.64,34.656 C78.7093333,34.9973333 78.8373333,35.2826667 79.024,35.512 C79.2106667,35.7413333 79.4666667,35.912 79.792,36.024 C80.1173333,36.136 80.536,36.192 81.048,36.192 Z M87.864,36.192 C88.44,36.192 88.984,36.096 89.496,35.904 C90.008,35.712 90.4506667,35.44 90.824,35.088 C91.1973333,34.736 91.4933333,34.312 91.712,33.816 C91.9306667,33.32 92.04,32.768 92.04,32.16 C92.04,31.552 91.9306667,31 91.712,30.504 C91.4933333,30.008 91.1973333,29.584 90.824,29.232 C90.4506667,28.88 90.008,28.608 89.496,28.416 C88.984,28.224 88.44,28.128 87.864,28.128 C87.288,28.128 86.744,28.224 86.232,28.416 C85.72,28.608 85.2773333,28.88 84.904,29.232 C84.5306667,29.584 84.2346667,30.008 84.016,30.504 C83.7973333,31 83.688,31.552 83.688,32.16 C83.688,32.768 83.7973333,33.32 84.016,33.816 C84.2346667,34.312 84.5306667,34.736 84.904,35.088 C85.2773333,35.44 85.72,35.712 86.232,35.904 C86.744,36.096 87.288,36.192 87.864,36.192 Z M87.864,34.464 C87.512,34.464 87.1973333,34.4 86.92,34.272 C86.6426667,34.144 86.4053333,33.9733333 86.208,33.76 C86.0106667,33.5466667 85.8613333,33.3013333 85.76,33.024 C85.6586667,32.7466667 85.608,32.4586667 85.608,32.16 C85.608,31.8613333 85.6586667,31.5733333 85.76,31.296 C85.8613333,31.0186667 86.0106667,30.7733333 86.208,30.56 C86.4053333,30.3466667 86.6426667,30.176 86.92,30.048 C87.1973333,29.92 87.512,29.856 87.864,29.856 C88.216,29.856 88.5306667,29.92 88.808,30.048 C89.0853333,30.176 89.3226667,30.3466667 89.52,30.56 C89.7173333,30.7733333 89.8666667,31.0186667 89.968,31.296 C90.0693333,31.5733333 90.12,31.8613333 90.12,32.16 C90.12,32.4586667 90.0693333,32.7466667 89.968,33.024 C89.8666667,33.3013333 89.7173333,33.5466667 89.52,33.76 C89.3226667,33.9733333 89.0853333,34.144 88.808,34.272 C88.5306667,34.4 88.216,34.464 87.864,34.464 Z M97.624,36.192 C97.7946667,36.192 97.9973333,36.1733333 98.232,36.136 C98.4666667,36.0986667 98.712,36.0373333 98.968,35.952 C99.224,35.8666667 99.4773333,35.7546667 99.728,35.616 C99.9786667,35.4773333 100.2,35.312 100.392,35.12 L100.392,35.12 L99.112,33.744 C98.9306667,33.9786667 98.712,34.1573333 98.456,34.28 C98.2,34.4026667 97.9226667,34.464 97.624,34.464 C97.272,34.464 96.9573333,34.4 96.68,34.272 C96.4026667,34.144 96.1653333,33.9733333 95.968,33.76 C95.7706667,33.5466667 95.6213333,33.3013333 95.52,33.024 C95.4186667,32.7466667 95.368,32.4586667 95.368,32.16 C95.368,31.8613333 95.4186667,31.5733333 95.52,31.296 C95.6213333,31.0186667 95.7706667,30.7733333 95.968,30.56 C96.1653333,30.3466667 96.4026667,30.176 96.68,30.048 C96.9573333,29.92 97.272,29.856 97.624,29.856 C97.88,29.856 98.1306667,29.9253333 98.376,30.064 C98.6213333,30.2026667 98.856,30.3893333 99.08,30.624 L99.08,30.624 L100.408,29.296 C100.034667,28.8906667 99.6,28.5946667 99.104,28.408 C98.608,28.2213333 98.1146667,28.128 97.624,28.128 C97.048,28.128 96.504,28.224 95.992,28.416 C95.48,28.608 95.0373333,28.88 94.664,29.232 C94.2906667,29.584 93.9946667,30.008 93.776,30.504 C93.5573333,31 93.448,31.552 93.448,32.16 C93.448,32.768 93.5573333,33.32 93.776,33.816 C93.9946667,34.312 94.2906667,34.736 94.664,35.088 C95.0373333,35.44 95.48,35.712 95.992,35.904 C96.504,36.096 97.048,36.192 97.624,36.192 Z M105.336,36.192 C105.912,36.192 106.456,36.096 106.968,35.904 C107.48,35.712 107.922667,35.44 108.296,35.088 C108.669333,34.736 108.965333,34.312 109.184,33.816 C109.402667,33.32 109.512,32.768 109.512,32.16 C109.512,31.552 109.402667,31 109.184,30.504 C108.965333,30.008 108.669333,29.584 108.296,29.232 C107.922667,28.88 107.48,28.608 106.968,28.416 C106.456,28.224 105.912,28.128 105.336,28.128 C104.76,28.128 104.216,28.224 103.704,28.416 C103.192,28.608 102.749333,28.88 102.376,29.232 C102.002667,29.584 101.706667,30.008 101.488,30.504 C101.269333,31 101.16,31.552 101.16,32.16 C101.16,32.768 101.269333,33.32 101.488,33.816 C101.706667,34.312 102.002667,34.736 102.376,35.088 C102.749333,35.44 103.192,35.712 103.704,35.904 C104.216,36.096 104.76,36.192 105.336,36.192 Z M105.336,34.464 C104.984,34.464 104.669333,34.4 104.392,34.272 C104.114667,34.144 103.877333,33.9733333 103.68,33.76 C103.482667,33.5466667 103.333333,33.3013333 103.232,33.024 C103.130667,32.7466667 103.08,32.4586667 103.08,32.16 C103.08,31.8613333 103.130667,31.5733333 103.232,31.296 C103.333333,31.0186667 103.482667,30.7733333 103.68,30.56 C103.877333,30.3466667 104.114667,30.176 104.392,30.048 C104.669333,29.92 104.984,29.856 105.336,29.856 C105.688,29.856 106.002667,29.92 106.28,30.048 C106.557333,30.176 106.794667,30.3466667 106.992,30.56 C107.189333,30.7733333 107.338667,31.0186667 107.44,31.296 C107.541333,31.5733333 107.592,31.8613333 107.592,32.16 C107.592,32.4586667 107.541333,32.7466667 107.44,33.024 C107.338667,33.3013333 107.189333,33.5466667 106.992,33.76 C106.794667,33.9733333 106.557333,34.144 106.28,34.272 C106.002667,34.4 105.688,34.464 105.336,34.464 Z M113.256,36 L113.256,23.904 L111.336,23.904 L111.336,36 L113.256,36 Z" id="TranchingProtocol" fill="#29D1FF" fill-rule="nonzero"></path>
                <g id="Group-Copy" transform="translate(0.000000, 0.000000)">
                    <g id="Combined-Shape">
                        <use fill="#000000" xlink:href="#path-2"></use>
                        <use fill-opacity="0.5" fill="url(#linearGradient-1)" xlink:href="#path-2"></use>
                    </g>
                    <g id="Combined-Shape">
                        <use fill="#000000" xlink:href="#path-4"></use>
                        <use fill-opacity="0.7" fill="url(#linearGradient-3)" xlink:href="#path-4"></use>
                    </g>
                    <g id="Combined-Shape">
                        <use fill="#000000" xlink:href="#path-6"></use>
                        <use fill-opacity="0.3" fill="url(#linearGradient-5)" xlink:href="#path-6"></use>
                    </g>
                    <polygon id="Fill-14" fill="url(#linearGradient-7)" points="23.7107698 1.11910481e-13 17.0468127 3.36184712 19.0683337 5.48035402 19.5029396 5.93906206 21.2721478 7.79803677 21.4888471 8.02135516 21.7067537 8.25070919 23.0105714 9.62079769 20.6383475 10.8158529 20.3540428 10.960708 20.0703418 11.1001311 18.4345335 11.9264092 18.1508324 12.0712644 17.8731675 12.2100839 7.10542736e-15 21.2152471 2.01608847 23.333754 2.23942761 23.563108 2.45733418 23.792462 4.21990254 25.6454011 4.43660186 25.8807908 4.65450843 26.1041092 6.25409958 27.7826185 6.47079891 28.0113689 6.68810186 28.240723 8.25811566 29.8884505 8.47481499 30.1184081 8.69211794 30.341123 9.08447049 30.7575816 30.3741232 20.025624 30.6578243 19.8813724 30.9354892 19.7425529 32.0890057 19.1631322 38.040692 25.4094079 38.1855606 25.3381874 38.4626219 25.1927287 38.7469266 25.0539092 40.1286112 24.360415 40.4129158 24.2149563 40.6905807 24.0701011 42.3257854 23.2486516 42.6094865 23.1044 42.8998274 22.9595448 44.7040455 22.0542"></polygon>
                </g>
            </g>
        </g>
    </g>
</svg>