<svg width="137" height="53" viewBox="0 0 137 53" fill="none" xmlns="http://www.w3.org/2000/svg">
<path d="M5.12081 16.3913V24.1707H0V2.08301H9.69453C11.5729 2.08301 13.2215 2.38495 14.6439 2.98172C16.0627 3.58204 17.1533 4.44168 17.9083 5.56063C18.6633 6.67958 19.0426 7.96193 19.0426 9.40413C19.0426 11.5603 18.211 13.2618 16.5515 14.5122C14.8883 15.7626 12.5795 16.3878 9.62523 16.3878H5.12081V16.3913ZM5.12081 12.7006H9.69089C11.044 12.7006 12.0799 12.4164 12.802 11.848C13.5242 11.2797 13.8853 10.4769 13.8853 9.43965C13.8853 8.36333 13.5242 7.48593 12.802 6.81811C12.0799 6.1503 11.0878 5.80218 9.82948 5.78086H5.12081V12.7006Z" fill="#494949"/>
<path d="M32.6178 11.8776C31.954 11.7959 31.3558 11.7568 30.8306 11.7568C28.9523 11.7568 27.7268 12.3181 27.1541 13.4335V24.1683H22.2047V7.75702H26.8806L27.0192 9.71074C28.004 8.2046 29.379 7.45508 31.1443 7.45508C31.695 7.45508 32.2093 7.51547 32.6907 7.63979L32.6178 11.8776Z" fill="#494949"/>
<path d="M34.9231 3.51907C34.9231 2.86902 35.1674 2.32553 35.6635 1.88861C36.1559 1.45168 36.8379 1.23145 37.7096 1.23145C38.5558 1.23145 39.2269 1.44458 39.7193 1.87084C40.2117 2.29711 40.4597 2.8477 40.4597 3.51907C40.4597 4.19044 40.208 4.73393 39.7047 5.14954C39.2014 5.56515 38.5303 5.77473 37.695 5.77473C36.8598 5.77473 36.1887 5.56515 35.6854 5.14954C35.1747 4.73393 34.9231 4.19044 34.9231 3.51907ZM40.1825 24.1681H35.2331V7.75687H40.1825V24.1681Z" fill="#494949"/>
<path d="M48.8081 7.76057L48.9467 9.65035C50.2744 8.18683 52.0506 7.45508 54.2754 7.45508C56.245 7.45508 57.7076 7.96305 58.6595 8.97898C59.6115 9.99491 60.0965 11.5224 60.1221 13.5542V24.1683H55.1727V13.675C55.1727 12.7408 54.9429 12.0623 54.487 11.6467C54.0274 11.2311 53.2724 11.0215 52.2184 11.0215C50.8214 11.0215 49.7783 11.5401 49.089 12.5774V24.1683H44.1323V7.75702H48.8081V7.76057Z" fill="#494949"/>
<path d="M71.5273 20.9357C72.4428 20.9357 73.1868 20.7119 73.7631 20.2644C74.3357 19.8168 74.6348 19.2271 74.6567 18.4954H79.2633C79.2633 19.6143 78.924 20.6374 78.2493 21.5609C77.5745 22.4881 76.6518 23.2021 75.481 23.71C74.3139 24.218 73.03 24.4737 71.6331 24.4737C68.9961 24.4737 66.9135 23.7278 65.378 22.2323C63.8424 20.7368 63.0765 18.6801 63.0765 16.055V15.7495C63.0765 13.2274 63.8315 11.2169 65.3451 9.71074C66.8588 8.2046 68.9414 7.45508 71.6003 7.45508C73.9163 7.45508 75.7655 8.04119 77.1515 9.20987C78.5374 10.3786 79.2414 11.9309 79.2669 13.8597H74.6603C74.6385 13.0072 74.3394 12.3145 73.7668 11.7852C73.1941 11.2559 72.4391 10.9931 71.4981 10.9931C70.3529 10.9931 69.4885 11.3661 68.9049 12.1049C68.3213 12.8473 68.0295 14.0515 68.0295 15.7211V16.1793C68.0295 17.8666 68.3177 19.0815 68.8903 19.8239C69.4556 20.5663 70.3383 20.9357 71.5273 20.9357Z" fill="#494949"/>
<path d="M82.0133 3.51907C82.0133 2.86902 82.2576 2.32553 82.7537 1.88861C83.2461 1.45168 83.9281 1.23145 84.7998 1.23145C85.646 1.23145 86.3171 1.44458 86.8095 1.87084C87.3019 2.29711 87.5499 2.8477 87.5499 3.51907C87.5499 4.19044 87.2982 4.73393 86.7949 5.14954C86.2916 5.56515 85.6205 5.77473 84.7852 5.77473C83.95 5.77473 83.2789 5.56515 82.7756 5.14954C82.2649 4.73393 82.0133 4.19044 82.0133 3.51907ZM87.2727 24.1681H82.3196V7.75687H87.269V24.1681H87.2727Z" fill="#494949"/>
<path d="M107.997 16.1154C107.997 18.6375 107.347 20.6587 106.056 22.1861C104.761 23.71 103.014 24.4738 100.815 24.4738C98.9367 24.4738 97.4231 23.8947 96.2779 22.7367V30.4841H91.3285V7.76057H95.935L96.0736 9.37683C97.2663 8.09448 98.8346 7.45508 100.782 7.45508C103.051 7.45508 104.82 8.20104 106.093 9.69653C107.366 11.192 108 13.2487 108 15.8738V16.1154H107.997ZM103.047 15.7815C103.047 14.2576 102.745 13.0818 102.135 12.2577C101.526 11.4336 100.64 11.0215 99.4729 11.0215C97.9155 11.0215 96.8468 11.5401 96.2779 12.5774V19.3195C96.8724 20.3958 97.952 20.9357 99.5094 20.9357C101.866 20.9357 103.047 19.2165 103.047 15.7815Z" fill="#494949"/>
<path d="M116.247 24.1678H111.297V0.865234H116.247V24.1678Z" fill="#494949"/>
<path d="M128.826 24.4737C126.124 24.4737 123.917 23.7384 122.21 22.2607C120.503 20.7865 119.65 18.8186 119.65 16.3605V15.9342C119.65 14.286 120.004 12.8118 120.715 11.5117C121.426 10.2116 122.44 9.20987 123.757 8.50653C125.073 7.80675 126.58 7.45508 128.276 7.45508C130.796 7.45508 132.784 8.16197 134.239 9.57575C135.694 10.9895 136.42 12.9965 136.42 15.6003V17.4013H124.665C124.825 18.4776 125.307 19.3372 126.109 19.9802C126.912 20.6196 127.918 20.9393 129.133 20.9393C131.033 20.9393 132.525 20.3283 133.601 19.1099L136.041 21.5183C135.308 22.4525 134.305 23.1807 133.032 23.6994C131.766 24.2144 130.362 24.4737 128.826 24.4737ZM128.243 10.9931C127.258 10.9931 126.467 11.2879 125.872 11.8776C125.278 12.4673 124.887 13.3127 124.705 14.4103H131.58V14.0444C131.558 13.0676 131.259 12.3181 130.687 11.7888C130.11 11.2559 129.297 10.9931 128.243 10.9931Z" fill="#494949"/>
<path d="M10.694 48.6921L17.8099 30.4834H21.3843L12.1712 52.5675H9.24967L0.0365829 30.4834H3.61094L10.694 48.6921Z" fill="#494949"/>
<path d="M31.8665 52.8689C29.3681 52.8689 27.3292 52.1371 25.7463 50.6736C24.167 49.2101 23.3756 47.2564 23.3756 44.816V44.2974C23.3756 42.6705 23.7257 41.2176 24.4223 39.9353C25.1226 38.6529 26.1001 37.6548 27.3621 36.9301C28.6204 36.209 29.9954 35.8467 31.4872 35.8467C33.8944 35.8467 35.7618 36.5465 37.0894 37.9496C38.417 39.3527 39.0845 41.3668 39.0845 43.9884V45.1464H26.5378C26.5815 46.7733 27.1177 48.0841 28.1353 49.0822C29.1529 50.0804 30.455 50.5777 32.0379 50.5777C33.1613 50.5777 34.1059 50.3752 34.8719 49.9667C35.6378 49.5618 36.3198 49.0218 36.918 48.3505L38.8438 49.6932C37.2864 51.8103 34.9594 52.8689 31.8665 52.8689ZM31.4872 38.1379C30.2033 38.1379 29.1274 38.5535 28.2557 39.3882C27.384 40.223 26.8478 41.381 26.6399 42.8659H35.9223V42.6527C35.8311 41.2283 35.4007 40.12 34.6348 39.3278C33.8652 38.5322 32.8184 38.1379 31.4872 38.1379Z" fill="#494949"/>
<path d="M45.719 36.1565L45.8211 38.199C47.2399 36.6147 49.0855 35.8297 51.3541 35.851C55.2713 35.851 57.2445 37.8047 57.2664 41.7086V52.5677H54.1042V41.7051C54.1042 40.5257 53.8014 39.6519 53.1923 39.0835C52.5832 38.5152 51.6495 38.231 50.3912 38.231C49.359 38.231 48.4618 38.4761 47.6922 38.9627C46.9226 39.4494 46.3245 40.0924 45.8868 40.8845V52.5677H42.7246V36.1565H45.719Z" fill="#494949"/>
<path d="M66.308 32.1875V36.1518H69.7802V38.3186H66.308V48.5064C66.308 49.1564 66.4612 49.6466 66.7712 49.9699C67.0812 50.2967 67.6137 50.4565 68.3687 50.4565C68.7335 50.4565 69.2295 50.3962 69.8459 50.2718V52.5595C69.0216 52.7619 68.2192 52.865 67.4387 52.865C66.0162 52.865 64.9476 52.4849 64.2254 51.7211C63.5032 50.9574 63.1421 49.8846 63.1421 48.5028V38.3151H59.772V36.1482H63.1421V32.1875H66.308Z" fill="#494949"/>
<path d="M84.8693 50.9477C83.6329 52.23 81.8202 52.8694 79.4385 52.8694C77.4689 52.8694 75.9662 52.3615 74.9341 51.3455C73.9019 50.3296 73.3876 48.8235 73.3876 46.8307V36.1562H76.5498V46.7419C76.5498 49.2213 77.6841 50.4752 79.9528 50.493C82.36 50.493 83.9611 49.6902 84.7635 48.0846V36.1598H87.9258V52.571H84.935L84.8693 50.9477Z" fill="#494949"/>
<path d="M101.676 38.6565C101.195 38.5961 100.68 38.5641 100.13 38.5641C98.0435 38.5641 96.6356 39.3456 95.9025 40.9121V52.5634H92.7403V36.1522H95.8004L95.8697 38.0419C96.9019 36.5784 98.3681 35.8467 100.268 35.8467C100.888 35.8467 101.355 35.9177 101.676 36.0598V38.6565Z" fill="#494949"/>
<path d="M112.228 52.8689C109.729 52.8689 107.69 52.1371 106.111 50.6736C104.532 49.2101 103.74 47.2564 103.74 44.816V44.2974C103.74 42.6705 104.091 41.2176 104.787 39.9353C105.487 38.6529 106.465 37.6548 107.727 36.9301C108.985 36.209 110.36 35.8467 111.852 35.8467C114.259 35.8467 116.127 36.5465 117.454 37.9496C118.782 39.3527 119.449 41.3668 119.449 43.9884V45.1464H106.903C106.946 46.7733 107.483 48.0841 108.5 49.0822C109.518 50.0804 110.82 50.5777 112.403 50.5777C113.526 50.5777 114.471 50.3752 115.237 49.9667C116.003 49.5618 116.685 49.0218 117.283 48.3505L119.209 49.6932C117.648 51.8103 115.321 52.8689 112.228 52.8689ZM111.852 38.1379C110.568 38.1379 109.492 38.5535 108.621 39.3882C107.749 40.223 107.213 41.381 107.005 42.8659H116.287V42.6527C116.196 41.2283 115.766 40.12 115 39.3278C114.226 38.5322 113.18 38.1379 111.852 38.1379Z" fill="#494949"/>
<path d="M133.849 48.2013C133.849 47.4482 133.528 46.8656 132.886 46.4465C132.244 46.0309 131.121 45.6686 129.516 45.3631C127.911 45.0576 126.638 44.6917 125.701 44.2654C124.76 43.8392 124.067 43.3312 123.622 42.7415C123.173 42.1519 122.951 41.4592 122.951 40.667C122.951 39.3243 123.593 38.1876 124.876 37.2498C126.16 36.3156 127.798 35.8467 129.793 35.8467C131.901 35.8467 133.601 36.3262 134.896 37.2818C136.19 38.2373 136.836 39.4664 136.836 40.9725H133.674C133.674 40.1981 133.302 39.5339 132.558 38.9762C131.814 38.4185 130.891 38.1379 129.789 38.1379C128.644 38.1379 127.743 38.3616 127.09 38.8092C126.437 39.2568 126.109 39.8465 126.109 40.5782C126.109 41.2496 126.408 41.7576 127.003 42.1021C127.597 42.4467 128.688 42.777 130.267 43.0932C131.846 43.4093 133.13 43.7788 134.115 44.205C135.1 44.6313 135.829 45.157 136.296 45.7751C136.767 46.3968 137 47.1427 137 48.0166C137 49.4801 136.34 50.6559 135.023 51.5404C133.707 52.4249 131.992 52.8689 129.884 52.8689C128.396 52.8689 127.076 52.6344 125.93 52.1656C124.785 51.6967 123.892 51.0466 123.25 50.2118C122.608 49.3771 122.287 48.4748 122.287 47.4979H125.449C125.493 48.4322 125.92 49.1817 126.722 49.7394C127.524 50.3006 128.578 50.5777 129.884 50.5777C131.077 50.5777 132.032 50.361 132.755 49.9206C133.488 49.4872 133.849 48.9153 133.849 48.2013Z" fill="#494949"/>
</svg>
